<!-- jitsi edit change icon for chat icon -->
<svg xmlns="http://www.w3.org/2000/svg" viewBox="0 0 24 24" stroke-width="2" stroke="currentColor" class="w-6 h-6">
  <path d="M9.26 2.584c-1.684.099-4.157.368-4.776.52a4.26 4.26 0 0 0-1.106.497c-.761.524-1.353 1.422-1.542 2.338-.07.336-.075.604-.075 3.807-.001 3.766-.004 3.718.235 4.369.401 1.097 1.412 2.02 2.504 2.285.387.094 1.872.286 3.1.401.649.06.933.103 1.02.152.085.048.589.771 1.74 2.496.891 1.336 1.629 2.429 1.64 2.429.011 0 .749-1.093 1.64-2.429 1.151-1.725 1.655-2.448 1.74-2.496.087-.049.371-.092 1.02-.152 1.228-.115 2.713-.307 3.1-.401 1.092-.265 2.101-1.186 2.505-2.285.233-.632.232-.622.233-4.375.001-3.201-.004-3.465-.074-3.801-.189-.916-.781-1.814-1.542-2.338a4.26 4.26 0 0 0-1.106-.497c-.645-.158-3.086-.419-4.896-.524-1.281-.074-4.062-.072-5.36.004m5.34.997c1.9.108 4.371.385 4.822.54a2.697 2.697 0 0 1 1.755 2.009c.055.266.063.753.062 3.638 0 3.761.008 3.638-.303 4.269-.326.66-.944 1.187-1.616 1.379-.283.08-1.8.276-2.98.384-.506.046-1.01.11-1.12.141a1.65 1.65 0 0 0-.693.424c-.07.074-.662.94-1.317 1.924-.654.984-1.199 1.789-1.21 1.789-.011 0-.556-.805-1.21-1.789-.655-.984-1.247-1.85-1.317-1.924a1.65 1.65 0 0 0-.693-.424c-.11-.031-.614-.095-1.12-.141-1.18-.108-2.697-.304-2.98-.384-.672-.192-1.29-.719-1.616-1.379-.311-.631-.303-.508-.303-4.269-.001-2.885.007-3.372.062-3.638a2.7 2.7 0 0 1 1.756-2.01c.431-.148 2.881-.427 4.721-.537 1.253-.074 4.006-.076 5.3-.002M7.489 8.25l.011.49h9l.011-.49.011-.49H7.478l.011.49m0 3 .011.49 2.25.01 2.25.011V10.76H7.478l.011.49" 
    fill-rule="evenodd" stroke="none"/>
</svg>