<!-- jitsi edit change raise hand icon outline -->
<svg xmlns="http://www.w3.org/2000/svg" viewBox="0 0 24 24" stroke-width="1.5" stroke="currentColor" class="w-6 h-6">
  <path d="M11.14.801c-.666.132-1.297.631-1.606 1.269-.082.17-.155.317-.161.326-.006.008-.124-.017-.262-.056-.303-.085-.879-.095-1.191-.021-.404.096-.717.278-1.065.621-.548.539-.695.936-.695 1.872v.581l-.21-.059c-.324-.091-.992-.08-1.31.021a2.4 2.4 0 0 0-.999.631c-.3.32-.465.614-.564 1.005-.078.311-.08.422-.067 4.973.014 5.178-.003 4.854.293 5.885.667 2.325 2.506 4.234 4.826 5.008 1.009.336 1.175.356 3.118.374 1.389.012 1.784.004 2.12-.046a6.132 6.132 0 0 0 2.773-1.16c.415-.309 2.576-2.47 2.885-2.885a6.2 6.2 0 0 0 .994-1.999c.184-.637.221-1.033.221-2.364v-1.224l.143-.167c.212-.245.442-.755.498-1.104a2.321 2.321 0 0 0-1.249-2.441c-.404-.203-.675-.256-1.172-.23-.475.025-.712.092-1.061.303l-.259.157-.021-2.945-.021-2.946-.108-.32c-.238-.703-.823-1.287-1.507-1.505-.334-.106-1.037-.116-1.343-.019-.275.087-.28.085-.342-.104-.21-.636-1.002-1.303-1.695-1.429a3.205 3.205 0 0 0-.963-.002M12 2.342a.927.927 0 0 1 .378.427c.055.131.062.645.062 4.381v4.233l.09.176a1.1 1.1 0 0 0 .244.299c.137.109.182.122.426.122s.289-.013.426-.122a1.1 1.1 0 0 0 .244-.299l.09-.176v-7.01l.093-.177c.051-.097.17-.23.264-.296.15-.106.203-.12.456-.12.25 0 .309.015.456.114a.854.854 0 0 1 .27.318l.101.204v9.89l-.27.05c-.586.107-1.346.421-1.885.781-.399.266-.869.69-.946.851-.266.561.261 1.217.848 1.056.106-.029.282-.143.48-.312.728-.618 1.387-.893 2.329-.968.404-.033.473-.05.616-.15.312-.221.325-.28.351-1.594.022-1.106.028-1.174.126-1.471.214-.646.747-1.334 1.108-1.429.496-.131.993.207 1.035.706.023.275-.038.438-.27.728-.345.429-.362.514-.363 1.818-.002 1.658-.059 2.115-.363 2.861-.314.772-.617 1.148-2.1 2.608-1.115 1.097-1.515 1.385-2.296 1.651-.634.216-.81.236-2.211.257-2.131.031-2.788-.074-3.929-.628a5.99 5.99 0 0 1-3.121-3.714c-.219-.751-.219-.758-.219-5.588 0-4.307.003-4.467.076-4.611.308-.599 1.143-.593 1.478.012.059.107.068.386.086 2.58.014 1.766.033 2.483.067 2.54.125.216.453.42.673.42.22 0 .548-.204.673-.42.035-.059.052-1.133.067-4.04.018-3.592.026-3.971.086-4.08.214-.385.679-.559 1.065-.398.191.08.317.199.419.398.08.155.083.248.12 3.24.02 1.694.054 3.148.075 3.231.047.185.25.423.423.495a.847.847 0 0 0 .583 0c.179-.075.382-.294.429-.464.027-.095.025-1.405-.007-3.948-.045-3.599-.043-3.815.023-3.989.167-.436.729-.654 1.144-.443" 
    fill-rule="evenodd" stroke="none"/>
</svg>
