<!-- jitsi edit change chat send icon -->
<svg
    viewBox="0 0 20 20"
    fill="currentColor"
    xmlns="http://www.w3.org/2000/svg"
    preserveAspectRatio="xMidYMid meet"
>
    <path d="M19.285 2.046c-.504.175-15.95 4.731-17.629 5.257C-.19 7.88-.526 9.406.817 10.107c1.343.7 3.861 1.752 3.861 1.752s8.138-4.008 9.234-4.556c-2.751 2.089-4.238 3.25-6.883 5.257-.336.255-.504.526-.504.877v4.03c0 .526.42.701.84.35.42-.35 3.19-2.628 3.19-2.628s-1.847-.876-2.183-1.052c-.504-.35-.168-.934.504-.7.503.175 3.357 1.577 4.533 2.102 1.175.526 1.678.176 2.182-.876.504-1.051 4.197-11.39 4.365-11.916.168-.526-.168-.877-.671-.701z" />
</svg>
