<!-- jitsi edit change tile view outline icon -->
<svg xmlns="http://www.w3.org/2000/svg" fill="none" stroke-width="1.5" stroke="currentColor" viewBox="0 0 22 22" fill="currentColor" class="w-6 h-6">
	<path d="M5.499 3.042A3.047 3.047 0 0 0 3.114 5.16c-.092.294-.094.331-.094 1.96 0 1.63.002 1.665.094 1.959.188.6.515 1.098.963 1.468.336.278.584.419.983.56l.32.113h3.48l.32-.109c.47-.16.798-.369 1.18-.751.382-.382.591-.71.751-1.18l.109-.32V5.38l-.113-.32c-.33-.938-1.043-1.628-2.007-1.944-.27-.088-.336-.092-1.84-.101-.858-.005-1.651.007-1.761.027m9.732-.002c-.859.151-1.665.728-2.122 1.52a3.778 3.778 0 0 0-.216.5l-.113.32v3.48l.109.32c.16.47.369.798.751 1.18.382.382.71.591 1.18.751l.32.109h3.48l.32-.113a3.078 3.078 0 0 0 1.946-2.027c.092-.294.094-.331.094-1.96s-.002-1.666-.094-1.96a3.08 3.08 0 0 0-2.025-2.037c-.316-.097-.345-.099-1.881-.108-.858-.004-1.645.007-1.749.025M8.88 4.643c.266.125.569.418.701.679.158.313.188.654.173 2.012L9.74 8.58l-.128.27c-.222.469-.61.779-1.089.869-.296.057-2.542.053-2.811-.004a1.566 1.566 0 0 1-1.069-.835l-.103-.22V5.58l.098-.2a1.7 1.7 0 0 1 .878-.802c.113-.042.469-.052 1.644-.046l1.5.008.22.103m9.74-.005c.278.136.584.438.723.711l.117.231v3.08l-.103.22a1.566 1.566 0 0 1-1.069.835c-.269.057-2.515.061-2.811.004-.479-.09-.867-.4-1.089-.869l-.128-.27-.014-1.246c-.015-1.332.015-1.701.16-1.987.173-.34.44-.588.788-.733.225-.094.231-.094 1.726-.084l1.5.01.2.098M5.342 12.821a3.216 3.216 0 0 0-.6.212 3.03 3.03 0 0 0-1.628 1.887c-.092.294-.094.331-.094 1.96s.002 1.666.094 1.96a3.086 3.086 0 0 0 2.046 2.046c.294.092.331.094 1.96.094s1.666-.002 1.96-.094a3.143 3.143 0 0 0 1.524-1.031c.252-.324.372-.541.503-.915l.113-.32v-3.48l-.109-.32a2.849 2.849 0 0 0-.731-1.163 2.966 2.966 0 0 0-1.2-.764l-.32-.112-1.62-.008c-1.266-.006-1.681.004-1.898.048m9.826-.016c-.991.165-1.932.997-2.279 2.015l-.109.32v3.48l.113.32c.337.956 1.049 1.639 2.028 1.946.294.092.329.094 1.959.094 1.629 0 1.666-.002 1.96-.094a3.105 3.105 0 0 0 2.035-1.999l.105-.307V16.9c0-1.65-.002-1.685-.094-1.98a3.012 3.012 0 0 0-1.586-1.861c-.569-.279-.74-.3-2.448-.294-.81.002-1.567.02-1.684.04m-6.32 1.582c.341.162.603.424.765.765l.127.268.014 1.246c.015 1.358-.015 1.699-.173 2.012a1.543 1.543 0 0 1-1.151.804c-.324.047-2.296.047-2.62 0a1.511 1.511 0 0 1-1.154-.834l-.116-.228v-3.08l.103-.22a1.56 1.56 0 0 1 1.086-.837c.116-.021.805-.034 1.531-.03l1.32.007.268.127m9.386-.105c.14.023.341.085.445.138.26.131.553.434.678.7l.103.22v3.08l-.116.228a1.511 1.511 0 0 1-1.154.834c-.324.047-2.296.047-2.62 0a1.543 1.543 0 0 1-1.151-.804c-.158-.313-.188-.654-.173-2.012l.014-1.246.127-.268c.219-.463.656-.805 1.113-.873.311-.045 2.449-.043 2.734.003" 
		fill-rule="evenodd" stroke="none"/>
</svg>
